<?xml version="1.0" standalone="no"?>
<!DOCTYPE svg PUBLIC "-//W3C//DTD SVG 20010904//EN"
 "http://www.w3.org/TR/2001/REC-SVG-20010904/DTD/svg10.dtd">
<svg version="1.0" xmlns="http://www.w3.org/2000/svg"
 width="16.000000pt" height="16.000000pt" viewBox="0 0 16.000000 16.000000"
 preserveAspectRatio="xMidYMid meet">
<metadata>
Created by potrace 1.11, written by Peter Selinger 2001-2013
</metadata>
<g transform="translate(0.000000,16.000000) scale(0.003125,-0.003125)"
fill="#000000" stroke="none">
<path d="M2520 4774 c-36 -7 -108 -34 -160 -60 -164 -81 -303 -243 -355 -413
l-18 -59 -42 18 c-23 10 -107 39 -186 64 -119 37 -186 65 -301 124 -3 2 3 -21
14 -50 24 -63 28 -160 9 -208 -8 -19 -34 -62 -58 -96 -125 -177 -147 -342 -59
-437 l24 -26 -78 -46 c-250 -147 -531 -412 -679 -640 -108 -167 -190 -377
-213 -545 l-12 -89 -56 -6 c-90 -11 -220 -44 -261 -67 -60 -34 -72 -70 -66
-202 5 -124 25 -200 63 -245 36 -43 105 -55 279 -48 l140 6 48 -94 c185 -362
538 -651 977 -799 l115 -39 39 -126 c94 -304 108 -346 116 -355 4 -4 46 19 93
52 133 94 109 93 255 12 71 -38 133 -70 139 -70 5 0 41 83 78 185 37 102 71
187 74 189 3 2 89 6 191 7 l185 3 55 -192 c30 -106 59 -192 63 -192 4 0 49 32
99 70 55 43 97 69 106 65 8 -3 63 -35 122 -70 60 -36 112 -65 118 -65 5 0 49
115 97 256 84 243 90 257 119 269 17 8 75 33 129 56 235 100 420 242 563 431
149 198 256 480 280 736 l7 70 91 4 c50 3 102 1 116 -5 32 -12 246 -11 285 2
24 8 18 9 -30 5 -54 -5 -222 10 -232 20 -3 2 5 18 17 34 19 25 22 40 18 83 -5
43 -11 58 -37 81 -17 15 -38 28 -47 28 -56 0 -111 -74 -101 -136 5 -32 4 -34
-21 -34 -15 0 -32 4 -38 8 -7 4 -13 58 -17 132 -9 200 -47 356 -128 529 -167
357 -540 663 -1019 837 -58 21 -106 39 -108 40 -1 1 9 37 24 80 36 105 45 275
19 388 -71 319 -361 548 -692 545 -48 0 -117 -7 -153 -15z m194 -260 c9 -8 16
-28 16 -44 0 -27 4 -29 54 -40 66 -14 131 -58 153 -106 20 -41 11 -64 -29 -78
-41 -15 -76 0 -97 43 -21 40 -65 76 -81 66 -6 -3 -10 -48 -10 -100 l0 -94 43
-11 c152 -39 207 -87 207 -178 0 -93 -71 -163 -190 -187 l-55 -11 -5 -50 c-5
-44 -7 -49 -30 -49 -23 0 -25 5 -30 50 l-5 50 -45 7 c-77 13 -149 55 -181 106
-16 25 -29 54 -29 63 0 43 92 66 122 32 9 -10 23 -35 31 -55 15 -35 66 -78 93
-78 8 0 11 30 8 103 -2 56 -4 107 -4 113 0 7 -21 17 -46 23 -144 37 -209 123
-169 227 21 55 80 97 161 115 49 11 54 15 54 40 0 26 22 59 40 59 5 0 16 -7
24 -16z m-1336 -1772 c27 -35 -1 -82 -49 -82 -49 0 -67 66 -27 94 25 18 56 13
76 -12z m3391 -432 c5 -17 7 -38 4 -46 -7 -18 -50 -37 -64 -28 -14 8 -11 57 7
82 21 30 40 28 53 -8z"/>
<path d="M2597 4342 c-52 -32 -51 -104 2 -139 19 -13 38 -23 42 -23 5 0 9 41
9 90 0 98 -4 103 -53 72z"/>
<path d="M2720 3957 c0 -57 3 -106 6 -110 11 -11 64 15 89 45 41 49 31 114
-23 142 -74 37 -72 39 -72 -77z"/>
</g>
</svg>
